<svg id="Layer_1" data-name="Layer 1" xmlns="http://www.w3.org/2000/svg" viewBox="0 0 936.46 278.49"><defs><style>.cls-1{fill:#1b222e;}.cls-2{fill:#00e5b4;}.cls-3{fill:#5955ff;}.cls-4{fill:#6aaeff;}</style></defs><title>logo</title><path class="cls-1" d="M312.81,179.29a13.24,13.24,0,0,1-4.5-4.06,8.82,8.82,0,0,1-1.33-4.76,7.26,7.26,0,0,1,1.59-4.76,5,5,0,0,1,4.06-1.94q2.3,0,7.23,2.82a75.11,75.11,0,0,0,10.32,4.59,38.79,38.79,0,0,0,12.62,1.76q8.46,0,13.23-3a9.46,9.46,0,0,0,4.76-8.47,8.23,8.23,0,0,0-1.85-5.64q-1.85-2.12-6.44-3.8a110.64,110.64,0,0,0-13.58-3.61q-15.53-3.36-22.32-9.09t-6.79-15.61A22.76,22.76,0,0,1,314.22,110a28.61,28.61,0,0,1,12.17-9.43A44,44,0,0,1,344,97.25a51.33,51.33,0,0,1,13.77,1.86,39,39,0,0,1,11.82,5.38q5.82,3.89,5.82,9a7,7,0,0,1-1.68,4.77,5.11,5.11,0,0,1-4,1.94,7.72,7.72,0,0,1-3.17-.71,41.79,41.79,0,0,1-4.24-2.29,59.49,59.49,0,0,0-8.91-4.41,29,29,0,0,0-10.32-1.59q-7.41,0-11.91,3.18a10,10,0,0,0-4.5,8.64,8.71,8.71,0,0,0,4.15,7.68q4.14,2.73,15.61,5.2,11.82,2.48,18.53,5.65t9.61,7.85q2.91,4.67,2.91,11.91,0,11.46-9.61,18.43t-25.67,7Q324.27,186.7,312.81,179.29Z"/><path class="cls-1" d="M459,105.9q8.38,8.64,8.38,26.29v45.69a8.26,8.26,0,0,1-2.29,6.26,8.79,8.79,0,0,1-6.35,2.21,7.91,7.91,0,0,1-8.47-8.47v-6.53a24.77,24.77,0,0,1-10,11.38,29.37,29.37,0,0,1-15.43,4,35,35,0,0,1-15.53-3.44,26.68,26.68,0,0,1-11-9.61,25,25,0,0,1-4-13.77q0-9.34,4.86-14.73t16.05-7.67q11.2-2.29,30.79-2.29h4.05v-5.12q0-9.88-4.05-14.29T433,111.37A41.81,41.81,0,0,0,421.31,113a87.46,87.46,0,0,0-12,4.59q-4.77,2.65-6.7,2.65a5.47,5.47,0,0,1-4.33-1.94,7.26,7.26,0,0,1-1.67-4.94,7.67,7.67,0,0,1,1.5-4.68,15.85,15.85,0,0,1,4.85-4,60.72,60.72,0,0,1,14.47-5.38,67.49,67.49,0,0,1,16.05-2Q450.6,97.25,459,105.9Zm-15.08,60.95q6.18-6.61,6.17-17v-4.59h-3.17a136.41,136.41,0,0,0-21.17,1.24q-7.41,1.23-10.59,4.14C413,152.56,412,155.36,412,159a13.24,13.24,0,0,0,4.58,10.41A16.66,16.66,0,0,0,428,173.47,20.76,20.76,0,0,0,443.89,166.85Z"/><path class="cls-1" d="M556,99a8.19,8.19,0,0,1,4.32-1.24,8.61,8.61,0,0,1,5.91,2.3,7.13,7.13,0,0,1,2.56,5.47,8.19,8.19,0,0,1-.71,3.35L519.05,213a8.34,8.34,0,0,1-3.09,3.79,7.83,7.83,0,0,1-4.32,1.33A8.79,8.79,0,0,1,505.9,216a6.62,6.62,0,0,1-2.56-5.29,9.56,9.56,0,0,1,.89-3.53l12.17-25.94-34-72.33a7.17,7.17,0,0,1,2.12-8.82,9.79,9.79,0,0,1,6.35-2.3,7.81,7.81,0,0,1,7.58,4.94l27.35,60.69,27.17-60.51A7.59,7.59,0,0,1,556,99Z"/><path class="cls-1" d="M659.92,100a8.47,8.47,0,0,1,2.38,6.26v72.34q0,19.75-10.49,29.81t-31,10.06q-19.05,0-31.75-7.24-6.54-3.71-6.53-8.82a7.28,7.28,0,0,1,1.67-4.94,5.28,5.28,0,0,1,4.15-1.94q2.29,0,7.23,2.65a89.91,89.91,0,0,0,11.82,4.67,44.79,44.79,0,0,0,13.06,1.68q24.35,0,24.35-24.52V166.41a27,27,0,0,1-11.3,12.09,35,35,0,0,1-17.64,4.32,38.29,38.29,0,0,1-20.11-5.29,35.59,35.59,0,0,1-13.67-15,49.4,49.4,0,0,1-4.85-22.4,48.66,48.66,0,0,1,4.94-22.41,37,37,0,0,1,13.67-15.09,37.43,37.43,0,0,1,20-5.38,34.67,34.67,0,0,1,17.38,4.24,27.69,27.69,0,0,1,11.38,12v-7.41A8.17,8.17,0,0,1,647,99.9a8.88,8.88,0,0,1,6.44-2.29A8.69,8.69,0,0,1,659.92,100Zm-21.79,61.13q6.52-7.59,6.53-21,0-13.24-6.44-20.91t-18.08-7.68q-11.65,0-18.26,7.59t-6.62,21q0,13.4,6.71,21t18.17,7.59Q631.6,168.71,638.13,161.12Z"/><path class="cls-1" d="M758.63,165.71a7.53,7.53,0,0,1,1.59,4.94q0,5.11-6.35,8.64a55.6,55.6,0,0,1-13.5,5.47,54.91,54.91,0,0,1-14,1.94q-20.46,0-32.28-11.91t-11.82-32.55a51,51,0,0,1,5.2-23.46,38.27,38.27,0,0,1,14.64-15.88,41,41,0,0,1,21.44-5.65q17.29,0,27.35,11.12t10,30q0,7.06-6.35,7.06H700.06q1.76,27.35,26.28,27.34A32.41,32.41,0,0,0,737.63,171a79.91,79.91,0,0,0,10.06-4.59q.52-.34,2.91-1.5a9.68,9.68,0,0,1,4-1.14A5,5,0,0,1,758.63,165.71Zm-51.16-48.87q-6.18,6.52-7.41,18.35h45.51q-.52-12-6.08-18.44t-15.62-6.44Q713.64,110.31,707.47,116.84Z"/><path class="cls-1" d="M781.12,183.17a10.8,10.8,0,0,1-3.26-8.11,11.13,11.13,0,0,1,3.26-8.21,10.94,10.94,0,0,1,8-3.26,10.66,10.66,0,0,1,7.94,3.26,11.3,11.3,0,0,1,3.17,8.21,11,11,0,0,1-3.17,8.11,10.78,10.78,0,0,1-7.94,3.18A11.07,11.07,0,0,1,781.12,183.17Z"/><path class="cls-1" d="M883.62,105.9q8.39,8.64,8.39,26.29v45.69a8.27,8.27,0,0,1-2.3,6.26,8.79,8.79,0,0,1-6.35,2.21,7.92,7.92,0,0,1-8.47-8.47v-6.53a24.77,24.77,0,0,1-10,11.38,29.37,29.37,0,0,1-15.43,4A35,35,0,0,1,834,183.26a26.74,26.74,0,0,1-11-9.61,25,25,0,0,1-4-13.77q0-9.34,4.86-14.73t16-7.67q11.21-2.29,30.79-2.29h4.06v-5.12q0-9.88-4.06-14.29t-13.06-4.41A41.81,41.81,0,0,0,846,113a87.46,87.46,0,0,0-12,4.59c-3.17,1.77-5.41,2.65-6.7,2.65a5.47,5.47,0,0,1-4.33-1.94,7.26,7.26,0,0,1-1.67-4.94,7.67,7.67,0,0,1,1.5-4.68,15.85,15.85,0,0,1,4.85-4,60.89,60.89,0,0,1,14.47-5.38,67.49,67.49,0,0,1,16-2Q875.24,97.25,883.62,105.9Zm-15.08,60.95q6.18-6.61,6.18-17v-4.59h-3.18a136.5,136.5,0,0,0-21.17,1.24q-7.41,1.23-10.59,4.14c-2.11,1.94-3.17,4.74-3.17,8.38a13.24,13.24,0,0,0,4.58,10.41,16.66,16.66,0,0,0,11.47,4.06A20.76,20.76,0,0,0,868.54,166.85Z"/><path class="cls-1" d="M917.23,77.49a9.7,9.7,0,0,1-3-7.41,9.44,9.44,0,0,1,3-7.32,13.29,13.29,0,0,1,16.14,0,9.31,9.31,0,0,1,3.09,7.32,9.7,9.7,0,0,1-3,7.41,13,13,0,0,1-16.23,0Zm1.68,106.74q-2.56-2.11-2.56-6.35V106.25a8,8,0,0,1,2.56-6.44,9.5,9.5,0,0,1,6.44-2.2,9.19,9.19,0,0,1,6.35,2.2,8.21,8.21,0,0,1,2.47,6.44v71.63c0,2.82-.83,4.94-2.47,6.35a9.44,9.44,0,0,1-6.35,2.12A9.76,9.76,0,0,1,918.91,184.23Z"/><path class="cls-2" d="M8.74,122.39l71.39,71.39a29.82,29.82,0,0,0,42.18,0l1.08-1.08a29.82,29.82,0,0,0,0-42.18L52,79.13a29.82,29.82,0,0,0-42.18,0L8.74,80.21a29.82,29.82,0,0,0,0,42.18"/><path class="cls-3" d="M253.8,198.36l-71.39,71.39a29.82,29.82,0,0,1-42.18,0l-1.08-1.08a29.82,29.82,0,0,1,0-42.18l71.39-71.39a29.82,29.82,0,0,1,42.18,0l1.08,1.07a29.83,29.83,0,0,1,0,42.19Z"/><path class="cls-3" d="M123.39,52,52,123.39a29.82,29.82,0,0,1-42.18,0l-1.08-1.08a29.82,29.82,0,0,1,0-42.18L80.13,8.74a29.82,29.82,0,0,1,42.18,0l1.08,1.08a29.82,29.82,0,0,1,0,42.18"/><path class="cls-2" d="M139.15,128l71.39,71.39a29.82,29.82,0,0,0,42.18,0l1.08-1.08a29.82,29.82,0,0,0,0-42.18L182.41,84.7a29.82,29.82,0,0,0-42.18,0l-1.08,1.08a29.82,29.82,0,0,0,0,42.18Z"/><path class="cls-3" d="M253.8,198.28l-1.08,1.08a29.83,29.83,0,0,1-42.19,0L188.4,177.23l22.13-22.13a29.83,29.83,0,0,1,42.19,0l1.08,1.08a29.68,29.68,0,0,1,8.19,15.4,29.28,29.28,0,0,1,.51,4.18A29.81,29.81,0,0,1,253.8,198.28Z"/><path class="cls-4" d="M253.8,198.28l-1.08,1.08a29.83,29.83,0,0,1-42.19,0L188.4,177.23l22.13-22.13a29.83,29.83,0,0,1,42.19,0l1.08,1.08a29.68,29.68,0,0,1,8.19,15.4,29.28,29.28,0,0,1,.51,4.18A29.81,29.81,0,0,1,253.8,198.28Z"/><path class="cls-2" d="M74.13,101.26,52,123.39a29.83,29.83,0,0,1-42.19,0l-1.08-1.08A29.81,29.81,0,0,1,0,99.79a29.83,29.83,0,0,1,8.7-19.58l1.08-1.07a29.83,29.83,0,0,1,42.19,0Z"/><path class="cls-4" d="M74.13,101.26,52,123.39a29.83,29.83,0,0,1-42.19,0l-1.08-1.08A29.81,29.81,0,0,1,0,99.79a29.83,29.83,0,0,1,8.7-19.58l1.08-1.07a29.83,29.83,0,0,1,42.19,0Z"/></svg>